<svg width="300" height="300" viewBox="0 0 300 300" fill="none" xmlns="http://www.w3.org/2000/svg">
<g clip-path="url(#clip0_2271_341)">
<path d="M30 0L0 28L29.4828 56" stroke="white"/>
<path d="M50 0L80 28L50.5172 56" stroke="white"/>
<circle cx="8" cy="78" r="8" fill="white"/>
<path d="M36 78C36 82.4183 32.4183 86 28 86C23.5817 86 20 82.4183 20 78C20 73.5817 23.5817 70 28 70C32.4183 70 36 73.5817 36 78ZM24 78C24 80.2091 25.7909 82 28 82C30.2091 82 32 80.2091 32 78C32 75.7909 30.2091 74 28 74C25.7909 74 24 75.7909 24 78Z" fill="white"/>
<rect x="60" y="70" width="7" height="16" fill="white"/>
<rect x="68" y="70" width="7" height="16" fill="white"/>
<path d="M56 78L44 84.9282V71.0718L56 78Z" fill="white"/>
</g>
<defs>
<clipPath id="clip0_2271_341">
<rect width="300" height="300" fill="white"/>
</clipPath>
</defs>
</svg>
